<svg width="22" height="22" viewBox="0 0 22 22" fill="none" xmlns="http://www.w3.org/2000/svg">
<path fill-rule="evenodd" clip-rule="evenodd" d="M11 7.47997C9.05593 7.47997 7.47997 9.05593 7.47997 11C7.47997 12.944 9.05593 14.52 11 14.52C12.944 14.52 14.52 12.944 14.52 11C14.52 9.05593 12.944 7.47997 11 7.47997ZM5.71997 11C5.71997 8.08391 8.08391 5.71997 11 5.71997C13.916 5.71997 16.28 8.08391 16.28 11C16.28 13.916 13.916 16.28 11 16.28C8.08391 16.28 5.71997 13.916 5.71997 11Z" fill="white"/>
<path fill-rule="evenodd" clip-rule="evenodd" d="M6.16 1.76C3.72995 1.76 1.76 3.72995 1.76 6.16V15.84C1.76 18.2701 3.72995 20.24 6.16 20.24H15.84C18.2701 20.24 20.24 18.2701 20.24 15.84V6.16C20.24 3.72995 18.2701 1.76 15.84 1.76H6.16ZM0 6.16C0 2.75793 2.75793 0 6.16 0H15.84C19.2421 0 22 2.75793 22 6.16V15.84C22 19.2421 19.2421 22 15.84 22H6.16C2.75793 22 0 19.2421 0 15.84V6.16Z" fill="white"/>
<path d="M16.7199 6.59996C17.4489 6.59996 18.0399 6.00898 18.0399 5.27996C18.0399 4.55095 17.4489 3.95996 16.7199 3.95996C15.9909 3.95996 15.3999 4.55095 15.3999 5.27996C15.3999 6.00898 15.9909 6.59996 16.7199 6.59996Z" fill="white"/>
</svg>
