<svg width="28" height="22" viewBox="0 0 28 22" fill="none" xmlns="http://www.w3.org/2000/svg">
<path fill-rule="evenodd" clip-rule="evenodd" d="M11.5281 6.0684C11.8533 5.89438 12.2478 5.91345 12.5547 6.11802L18.5547 10.118C18.8329 10.3035 19 10.6157 19 10.9501C19 11.2844 18.8329 11.5967 18.5547 11.7821L12.5547 15.7821C12.2478 15.9867 11.8533 16.0058 11.5281 15.8317C11.203 15.6577 11 15.3189 11 14.9501V6.95007C11 6.58128 11.203 6.24242 11.5281 6.0684ZM13 8.81859V13.0816L16.1972 10.9501L13 8.81859Z" fill="white"/>
<path fill-rule="evenodd" clip-rule="evenodd" d="M13.9985 4.26173e-05L13.9816 0L13.9188 2.93255e-05C13.8643 0.000151277 13.785 0.000546515 13.6831 0.00162733C13.4794 0.00378847 13.1856 0.00869304 12.8206 0.0196481C12.0912 0.0415407 11.0746 0.0876849 9.92368 0.184853C7.64733 0.377043 4.74928 0.775905 2.51808 1.62842L2.50338 1.63417C2.06511 1.80961 1.6742 2.08559 1.36218 2.43986C1.05016 2.79413 0.825774 3.21677 0.707108 3.67369L0.706137 3.67746C0.394729 4.89601 0 7.1557 0 10.9501C0 14.7444 0.394729 17.0041 0.706137 18.2227L0.707108 18.2264C0.825774 18.6833 1.05016 19.106 1.36218 19.4603C1.6742 19.8145 2.06511 20.0905 2.50338 20.2659L2.51808 20.2717C4.74928 21.1242 7.64733 21.5231 9.92368 21.7153C11.0746 21.8124 12.0912 21.8586 12.8206 21.8805C13.1856 21.8914 13.4794 21.8963 13.6831 21.8985C13.785 21.8996 13.8643 21.9 13.9188 21.9001L13.9816 21.9001L13.9985 21.9001H14.0015L14.0184 21.9001L14.0812 21.9001C14.1357 21.9 14.215 21.8996 14.3169 21.8985C14.5206 21.8963 14.8144 21.8914 15.1794 21.8805C15.9088 21.8586 16.9254 21.8124 18.0763 21.7153C20.3527 21.5231 23.2507 21.1242 25.4819 20.2717L25.4966 20.2659C25.9349 20.0905 26.3258 19.8145 26.6378 19.4603C26.9498 19.106 27.1742 18.6833 27.2929 18.2264L27.2939 18.2227C27.6053 17.0041 28 14.7444 28 10.9501C28 7.1557 27.6053 4.89601 27.2939 3.67746L27.2929 3.67369C27.1742 3.21677 26.9498 2.79412 26.6378 2.43986C26.3258 2.08559 25.9349 1.80961 25.4966 1.63417L25.4819 1.62842C23.2507 0.775905 20.3527 0.377043 18.0763 0.184853C16.9254 0.0876849 15.9088 0.0415407 15.1794 0.0196481C14.8144 0.00869304 14.5206 0.00378847 14.3169 0.00162733C14.215 0.000546515 14.1357 0.000151277 14.0812 2.93255e-05L14.0184 0L14.0015 4.26173e-05H13.9985ZM13.9947 19.9001L14.0054 19.9L14.0086 19.9001L14.0217 19.9001L14.0767 19.9001C14.1259 19.9 14.1996 19.8996 14.2957 19.8986C14.4877 19.8966 14.7686 19.8919 15.1194 19.8814C15.8216 19.8603 16.8011 19.8158 17.9081 19.7224C20.1441 19.5336 22.8041 19.152 24.7596 18.4067C24.9044 18.3476 25.0336 18.2558 25.1369 18.1384C25.2414 18.0197 25.3167 17.8782 25.3567 17.7253C25.6203 16.6931 26 14.6031 26 10.9501C26 7.29699 25.6203 5.20704 25.3567 4.17484C25.3167 4.02187 25.2414 3.88039 25.1369 3.76173C25.0336 3.64434 24.9044 3.55253 24.7596 3.49346C22.8041 2.74811 20.1441 2.36655 17.9081 2.17776C16.8011 2.0843 15.8216 2.03982 15.1194 2.01875C14.7686 2.00822 14.4877 2.00355 14.2957 2.00151C14.1996 2.0005 14.1259 2.00013 14.0767 2.00002L14.0217 2L14.0086 2.00003L14.0058 2.00004L13.9946 2.0001L13.9914 2.00003L13.9783 2L13.9233 2.00002C13.8741 2.00013 13.8004 2.0005 13.7043 2.00151C13.5123 2.00355 13.2314 2.00822 12.8806 2.01875C12.1784 2.03982 11.1989 2.0843 10.0919 2.17776C7.8559 2.36655 5.1959 2.74811 3.24039 3.49346C3.09561 3.55253 2.96645 3.64435 2.86306 3.76173C2.75855 3.88039 2.6833 4.02187 2.64331 4.17484C2.37974 5.20705 2 7.29699 2 10.9501C2 14.6031 2.37973 16.6931 2.6433 17.7253C2.68329 17.8782 2.75855 18.0197 2.86306 18.1384C2.96645 18.2558 3.09561 18.3476 3.24038 18.4067C5.1959 19.152 7.8559 19.5336 10.0919 19.7224C11.1989 19.8158 12.1784 19.8603 12.8806 19.8814C13.2314 19.8919 13.5123 19.8966 13.7043 19.8986C13.8004 19.8996 13.8741 19.9 13.9233 19.9001L13.9783 19.9001L13.9914 19.9001L13.9947 19.9001Z" fill="white"/>
</svg>
