<svg width="99" height="49" viewBox="0 0 99 49" fill="none" xmlns="http://www.w3.org/2000/svg">
<path d="M26.4836 9.69992C26.5936 9.7164 26.6775 9.74411 26.7613 9.73831C27.087 9.70956 27.3087 9.74437 27.4523 10.1387C27.6488 10.6857 28.2757 10.9299 28.8429 10.7999C29.3748 10.6794 29.7801 10.1961 29.8126 9.64678C29.845 9.0788 29.4942 8.56393 28.9551 8.37724C28.4123 8.19056 27.7951 8.38577 27.5017 8.89855C27.3688 9.12977 27.2202 9.18228 26.9855 9.16798C26.8365 9.15719 26.6839 9.17992 26.4959 9.18971C26.5489 8.28652 26.6003 7.42244 26.6496 6.51926C26.8358 6.51507 27.0125 6.49041 27.1821 6.51791C27.2455 6.52892 27.3094 6.65537 27.3415 6.7428C27.6419 7.57061 28.6247 7.87162 29.3146 7.3299C29.7207 7.01047 29.8767 6.57624 29.7605 6.06822C29.6423 5.55089 29.311 5.21844 28.791 5.1099C28.284 5.0032 27.808 5.14219 27.5496 5.58227C27.3263 5.96454 27.0563 5.96709 26.6929 5.90657C26.703 5.698 26.7168 5.48942 26.7232 5.28459C26.7535 4.29581 26.0289 3.53611 25.0439 3.53302C24.2879 3.53122 23.532 3.52941 22.7761 3.53878C21.8358 3.55048 21.1191 4.30267 21.1464 5.24475C21.1531 5.47003 21.1692 5.69343 21.1816 5.93173C20.8763 5.95112 20.6254 6.02438 20.4335 5.65992C20.1722 5.16716 19.5139 4.98823 18.9917 5.17389C18.4416 5.37265 18.1036 5.90044 18.1531 6.47939C18.2007 7.03041 18.6445 7.50781 19.1943 7.6051C19.7683 7.70418 20.329 7.40485 20.5609 6.87546C20.6762 6.61201 20.8997 6.50407 21.2314 6.55164L21.4205 9.25845C21.169 9.23116 20.9436 9.22243 20.7255 9.17271C20.6454 9.15615 20.5685 9.05394 20.5215 8.97399C20.1403 8.34748 19.3479 8.14654 18.7466 8.53163C18.1398 8.92232 17.9801 9.72709 18.4022 10.3237C18.6798 10.7177 19.0792 10.8955 19.5575 10.8477C20.0525 10.798 20.4216 10.5308 20.5812 10.0705C20.6766 9.79473 20.8047 9.72551 21.0637 9.75278C21.1811 9.76552 21.3056 9.71865 21.4395 9.69969C21.4632 9.94541 21.4901 10.1129 21.491 10.2805C21.4933 10.7385 21.6481 11.1403 21.9867 11.4467C22.4507 11.87 22.5929 12.3594 22.5664 13C22.4587 15.5567 22.4162 18.1189 22.3494 20.6792C22.2841 23.1521 22.215 25.625 22.1646 28.0978C22.1602 28.338 22.0787 28.4127 21.8649 28.4747C17.018 29.8704 14.5221 35.0958 16.5458 39.6897C17.6876 42.275 19.6938 43.8693 22.4565 44.4842C22.7007 44.5376 22.7905 44.6193 22.8141 44.8762C22.8537 45.3266 22.9721 45.533 23.484 45.4963C23.9623 45.4598 24.4483 45.4641 24.9288 45.489C25.2455 45.5068 25.375 45.3463 25.4462 45.0873C25.4681 45.0053 25.4863 44.9196 25.4803 44.8359C25.4624 44.6143 25.5569 44.534 25.7727 44.4888C27.813 44.0535 29.4609 42.9917 30.7184 41.3314C33.3666 37.8353 32.7014 32.7222 29.2518 29.9883C28.3357 29.2645 27.3219 28.7364 26.192 28.4413C25.9887 28.3878 25.9435 28.2874 25.937 28.1105C25.8797 26.394 25.8223 24.6737 25.7594 22.9552C25.6352 19.4792 25.5091 16.0051 25.3774 12.5292C25.3688 12.3058 25.4089 12.1232 25.5607 11.9627C25.62 11.903 25.6624 11.8265 25.7217 11.7668C26.2068 11.2516 26.5054 10.6625 26.4495 9.93275C26.4455 9.88063 26.4638 9.82472 26.4818 9.70179L26.4836 9.69992ZM22.6402 42.5733C20.1482 42.0937 17.5226 39.5476 17.7352 36.0242C17.9478 32.512 20.9077 29.8736 24.3997 30.0416C27.89 30.2115 30.5791 33.1465 30.456 36.6958C30.396 38.4071 29.7109 39.8574 28.4732 41.0373C27.6673 41.8046 26.7259 42.3191 25.6399 42.5899C25.6335 42.4354 25.6311 42.3218 25.6268 42.2101C25.6036 41.6981 25.2385 41.3025 24.7356 41.2814C24.3296 41.2638 23.9237 41.2649 23.5179 41.2845C23.0228 41.3081 22.6598 41.6851 22.6326 42.1842C22.6239 42.3053 22.6394 42.4281 22.6439 42.5771L22.6402 42.5733ZM22.7293 28.195C22.8655 22.8881 23.0053 17.5513 23.1415 12.237C23.7131 12.2299 24.2382 12.2249 24.7949 12.2179C24.9884 17.5556 25.1837 22.8915 25.3751 28.1865L22.7293 28.195V28.195ZM25.537 43.9252C25.5455 43.7707 25.5672 43.6403 25.5553 43.51C25.5298 43.2587 25.6523 43.1839 25.8773 43.1219C27.2551 42.7553 28.4188 42.0355 29.3516 40.9532C32.3185 37.5066 31.2668 32.1952 27.1656 30.2003C24.6101 28.9574 22.1294 29.2188 19.848 30.9115C17.101 32.9499 16.3301 36.8899 18.066 39.8423C19.0692 41.549 20.5347 42.6513 22.4496 43.1585C22.5409 43.1825 22.668 43.2641 22.687 43.3385C22.7289 43.5246 22.7169 43.7238 22.7273 43.923C19.6583 43.4821 16.3938 40.5317 16.4201 36.2901C16.4455 32.2142 19.7535 28.858 23.9014 28.7357C27.9711 28.6137 31.4827 31.8167 31.7516 35.9067C32.0289 40.1792 28.8857 43.3693 25.537 43.9252ZM22.0155 4.44377C22.2358 4.21046 22.5109 4.10922 22.8293 4.11027C23.5387 4.11033 24.2462 4.10481 24.9557 4.10487C25.7433 4.10473 26.187 4.57468 26.1408 5.35869C26.0468 6.9807 25.9286 8.60091 25.8645 10.2266C25.8415 10.8187 25.4392 11.1493 25.1397 11.5597C25.1045 11.6101 24.9854 11.6141 24.9053 11.6162C24.4417 11.6229 23.9761 11.5869 23.5183 11.6327C23.0549 11.6804 22.7116 11.5473 22.4768 11.1513C22.3359 10.9114 22.1149 10.6736 22.0913 10.4205C21.9426 8.69854 21.835 6.97277 21.718 5.24517C21.6959 4.938 21.8007 4.67147 22.0155 4.44749L22.0155 4.44377ZM23.3764 44.8561C23.3179 43.9979 23.2519 43.1248 23.2045 42.2479C23.1902 41.9929 23.3551 41.8491 23.6177 41.8466C23.9379 41.842 24.26 41.8393 24.5822 41.8441C24.9229 41.8488 25.0596 41.9993 25.0428 42.3419C25.021 42.8131 24.9918 43.2842 24.9645 43.7572C24.9422 44.1316 24.9181 44.504 24.8957 44.8448L23.3726 44.8561L23.3764 44.8561ZM18.9153 5.88721C19.1783 5.6147 19.6065 5.60244 19.8816 5.86428C20.1492 6.11869 20.1608 6.57111 19.9053 6.83616C19.646 7.10494 19.2085 7.11164 18.939 6.85165C18.6601 6.58237 18.6505 6.16532 18.9172 5.88907L18.9153 5.88721ZM19.9078 9.11706C20.1755 9.38264 20.1721 9.81649 19.9035 10.0797C19.6349 10.3466 19.2048 10.3422 18.9408 10.0691C18.675 9.79795 18.6765 9.36597 18.9432 9.10462C19.2119 8.8414 19.6383 8.8459 19.9078 9.11706ZM29.037 9.09947C29.3028 9.37064 29.2995 9.80076 29.029 10.0621C28.7604 10.3216 28.3209 10.3153 28.0607 10.046C27.7986 9.77106 27.8038 9.33907 28.0724 9.07958C28.3466 8.81448 28.7619 8.82273 29.0352 9.10134L29.037 9.09947ZM28.0464 5.8603C28.3112 5.58965 28.7469 5.58109 29.0108 5.84296C29.2803 6.1104 29.2881 6.54049 29.027 6.81114C28.764 7.08365 28.3414 7.08659 28.0644 6.81917C27.7837 6.54804 27.776 6.13656 28.0464 5.8603V5.8603Z" fill="#F4D4AD"/>
<path d="M25.3097 31.3222C25.2824 31.447 25.2419 31.5439 25.2406 31.6426C25.2487 33.9179 25.2624 36.1913 25.2723 38.4647C25.2734 38.6696 25.332 38.8351 25.5628 38.8345C25.7919 38.8321 25.8506 38.6644 25.8477 38.4614C25.834 36.188 25.8277 33.9146 25.8029 31.6412C25.8023 31.5257 25.701 31.3882 25.6093 31.3046C25.5588 31.2619 25.4232 31.3126 25.3078 31.324L25.3097 31.3222Z" fill="#F4D4AD"/>
<path d="M23.8459 31.326C23.8187 31.4657 23.782 31.5626 23.7844 31.6613C23.7924 33.9254 23.8042 36.1895 23.8178 38.4555C23.8189 38.6492 23.8645 38.8315 24.0991 38.8384C24.3524 38.8452 24.4017 38.657 24.4006 38.4485C24.3888 36.1843 24.3789 33.9184 24.356 31.6543C24.3535 31.537 24.2671 31.392 24.1736 31.314C24.1156 31.2639 23.9725 31.3182 23.8515 31.3241L23.8459 31.326Z" fill="#F4D4AD"/>
<path d="M22.4175 38.7998C22.5461 38.8125 22.658 38.8531 22.7379 38.8213C22.8178 38.7894 22.8992 38.6924 22.923 38.6048C22.9578 38.4912 22.9385 38.3609 22.936 38.2398C22.9267 36.0968 22.9156 33.9555 22.9007 31.8106C22.8996 31.5946 22.9596 31.3207 22.6224 31.2862C22.4063 31.2644 22.3252 31.421 22.3272 31.8195C22.3386 34.0091 22.35 36.1988 22.3651 38.3884C22.3658 38.515 22.3962 38.6415 22.4175 38.796L22.4175 38.7998Z" fill="#F4D4AD"/>
<path d="M26.8817 40.4029L26.862 39.8313C26.7689 39.8278 26.6757 39.8206 26.5864 39.8208C24.8957 39.8251 23.2069 39.8276 21.5162 39.8319C21.4678 39.832 21.4213 39.8302 21.3747 39.8322C21.1886 39.8439 21.0606 39.9354 21.0691 40.129C21.0775 40.3189 21.2064 40.4061 21.3963 40.4056C22.1802 40.4018 22.9641 40.4017 23.7461 40.3997C24.7758 40.3989 25.8036 40.4 26.8799 40.401L26.8817 40.4029Z" fill="#F4D4AD"/>
<text fill="#C97A68" xml:space="preserve" style="white-space: pre" font-family="Irish Grover" font-size="24" letter-spacing="0px"><tspan x="37" y="35.9258">Banjo</tspan></text>
</svg>
